<?xml version="1.0" standalone="no"?>
<!DOCTYPE svg PUBLIC "-//W3C//DTD SVG 20010904//EN"
 "http://www.w3.org/TR/2001/REC-SVG-20010904/DTD/svg10.dtd">
<svg version="1.0" xmlns="http://www.w3.org/2000/svg"
 width="850.000000pt" height="850.000000pt" viewBox="0 0 850.000000 850.000000"
 preserveAspectRatio="xMidYMid meet">
<metadata>
Created by potrace 1.16, written by Peter Selinger 2001-2019
</metadata>
<g transform="translate(0.000000,850.000000) scale(0.100000,-0.100000)"
fill="#000000" stroke="none">
<path d="M0 4250 l0 -4250 4250 0 4250 0 0 4250 0 4250 -4250 0 -4250 0 0
-4250z m6350 831 c3 -1 -114 -120 -260 -266 l-265 -265 570 -570 570 -570
-105 0 -105 0 -550 550 -550 550 -5 -442 -5 -443 -65 0 -65 0 -3 728 -2 727
70 0 70 0 0 -252 0 -253 258 258 257 257 90 -4 c50 -2 92 -5 95 -5z m-2397 -9
c16 -4 17 -42 17 -631 l0 -626 633 633 632 632 93 0 c50 0 92 -3 92 -7 0 -5
-325 -333 -722 -730 l-723 -723 -72 0 -73 0 0 627 0 628 -628 -628 -627 -627
-100 0 -100 0 730 730 730 731 50 -2 c28 -2 58 -5 68 -7z m-1885 -14 c43 -10
142 -65 142 -78 0 -3 -17 -23 -38 -44 l-39 -37 -37 22 c-28 16 -53 21 -104 22
-133 0 -191 -59 -192 -194 0 -82 29 -144 81 -171 20 -10 73 -23 120 -28 119
-15 178 -34 247 -81 242 -161 276 -501 72 -710 -140 -143 -351 -180 -536 -92
-129 61 -236 208 -253 348 l-7 65 58 0 c57 0 58 -1 58 -28 0 -101 87 -229 190
-281 221 -110 472 28 506 280 14 103 -53 249 -143 310 -65 45 -104 58 -202 68
-109 12 -166 35 -223 93 -69 69 -93 127 -93 228 0 70 4 94 24 135 69 140 219
210 369 173z"/>
</g>
</svg>
